<?xml version="1.0" encoding="utf-8"?>
<svg xmlns="http://www.w3.org/2000/svg" viewBox="0 0 500 500">
  <rect width="500" height="500" fill="#000000"/>
  <path d="M7 33 C8.27506318094176 38.53344726601008 10.963989321132441 41.244231231943516 15.25 44.6875 C15.8740673828125 45.20513916015625 16.498134765625 45.7227783203125 17.14111328125 46.256103515625 C22.472381628859488 50.65108710070553 27.912046936619568 54.912734368726106 33.3671875 59.15234375 C37.291208414580154 62.21162275358448 41.14658674841584 65.3525450009856 45 68.5 C49.93928967244629 72.53226614723931 54.90819603881377 76.51811139576522 59.9375 80.4375 C65.9384413444194 85.11713315849218 71.80963636961987 89.94358678739357 77.670166015625 94.79736328125 C82.75807190604482 99.0019481649193 87.9114049783876 103.1107112617216 93.115478515625 107.170166015625 C96.59162035948378 109.88441375672022 100.02986198972702 112.63711412410557 103.4375 115.4375 C105.29133618328768 116.95873616216842 107.14553125216575 118.47953503201762 109 120 C109.5736328125 120.470830078125 110.147265625 120.94166015625 110.73828125 121.4267578125 C136.20097847423008 142.26596527759358 136.20097847423008 142.26596527759358 150 141 C157.13590808767276 139.2857297502841 162.68113326973986 135.97557486752925 167 130 C170.39653435009626 124.15913890662638 171.65999162243796 118.9607465511542 170.609375 112.2578125 C169.07443817958855 106.57067479360373 165.5857581672027 103.38615485136746 161 100 C158.98615048442227 98.92774978373268 156.93659055132844 97.9209574031969 154.86328125 96.96875 C154.27542846679688 96.69638519287109 153.68757568359376 96.42402038574218 153.0819091796875 96.14340209960938 C151.16174587555986 95.25564848302815 149.23724872850207 94.3777617008077 147.3125 93.5 C145.95959482623445 92.877082875568 144.60697816296147 92.25353878858176 143.254638671875 91.62939453125 C140.4968952347361 90.3577782679253 137.73744734096078 89.08997598305254 134.9765625 87.8251953125 C131.37462059571874 86.17405230737708 127.77994488779518 84.50765874369853 124.1875 82.8359375 C112.53810966240276 77.42004726168584 100.84231882355058 72.1201239049184 89.093505859375 66.923583984375 C79.54213698117758 62.696396010793904 70.01722140885205 58.41210462826895 60.49560546875 54.118408203125 C55.363494843527306 51.80575503616001 50.228329475857706 49.49988965555111 45.093505859375 47.193267822265625 C40.70429063798495 45.2203670762856 36.319480487710486 43.23833349044982 31.940643310546875 41.24250793457031 C29.089053806936782 39.94530069669233 26.23151412510627 38.661318472485746 23.375 37.375 C22.3874169921875 36.91988037109375 21.399833984375 36.4647607421875 20.38232421875 35.995849609375 C15.76189636977265 33.92990191873117 12.181643419790575 32.39748332328016 7 33 Z" fill="#ffffff"/>
  <path d="M155 86 C157.9486260288384 88.35475755464611 160.93446184715685 90.01998187363188 164.3125 91.6875 C171.05133836905284 95.32233404685894 174.99777214116645 99.70601223224158 178.9375 106.1875 C181.2872455543069 114.61893993016008 181.16074616223915 124.15482205099691 177 132 C171.29951598480568 140.96766789920258 163.98726909244886 146.47508149678276 154 150 C144.04323504420844 151.896526658246 135.12146843871417 150.8121930990269 126.3671875 145.640625 C122.5090599795737 142.9666752333679 118.99378997699105 139.900711768969 115.48046875 136.79296875 C113 135 113 135 109 135 C98.54717543573872 155.98828015274594 97.35403278718027 178.80424268882635 104.625 201.0625 C110.77228303538327 218.8993541597926 121.0760655339196 233.33045393010727 134 247 C134.69609375 247.7489453125 135.3921875 248.497890625 136.109375 249.26953125 C164.8331660403155 279.19888286317547 206.01389040276104 293.5660925304877 246 300 C246.7713427734375 300.126005859375 247.542685546875 300.25201171875 248.33740234375 300.3818359375 C260.1454462756375 302.24961852611585 272.06975392048884 302.59418687284847 284 303 C284.08415161132814 303.3655700683594 284.08415161132814 303.3655700683594 284.510009765625 305.215576171875 C289.1741555665433 324.91089927007573 303.3266836406709 340.9284903249179 319 353 C319.78117187500004 353.6200390625 320.56234374999997 354.240078125 321.3671875 354.87890625 C332.81476448862463 363.493497014167 347.18104981130466 369.8610253422137 361.640625 368.6796875 C365.7884354222086 367.4847884710856 368.2733929042534 365.07366883795027 370.66015625 361.546875 C377.5541718122616 347.79725064741143 380.2153477464774 333.3082896856583 380.0625 318 C380.060244140625 317.56494140625 380.060244140625 317.56494140625 380.048828125 315.36328125 C380.03717359655036 313.24215707216695 380.01924356867556 311.12106890290863 380 309 C400.22151898734177 324.6645569620253 400.22151898734177 324.6645569620253 404 336 C404.9777028252211 344.12615298995274 402.81482580283597 349.2284652307777 398.01171875 355.6640625 C390.2709984874088 365.37004334739413 381.6925624365388 373.28830829277956 372 381 C370.9028857818855 381.8988126439894 369.80655586144235 382.79858331728894 368.7109375 383.69921875 C360.5762780352166 390.32466495601096 352.17056175569087 395.91561975527435 343 401 C342.20674316406246 401.443759765625 341.41348632812503 401.88751953125 340.59619140625 402.3447265625 C323.08842708441006 412.06417216913815 305.6357421080007 419.03700539605256 286 423 C284.955859375 423.2255859375 283.91171875 423.451171875 282.8359375 423.68359375 C266.64069460906023 426.8484323203319 249.79109813365815 425.7085881807689 235 418 C235.6638671875 417.5526953125 236.327734375 417.105390625 237.01171875 416.64453125 C241.74409830547953 413.40440568573734 246.1884968052824 410.32657119400375 250 406 C250.27650390625 405.68869140625 250.27650390625 405.68869140625 251.67578125 404.11328125 C260.12594303242327 394.0346086315637 264.17316549093084 382.05038108924396 264 369 C248.45822007231172 360.7048371000644 232.68253941696472 355.1151624199496 214.80859375 356.375 C198.33953006320291 357.4085159023092 198.33953006320291 357.4085159023092 194 354.7958984375 C190.67555419761436 351.61729671178153 188.48678336824037 347.75954409570653 186.18798828125 343.8125 C175.8649585432982 328.06277275492107 152.47749653844508 319.00616235522494 134.782958984375 315.125 C127.48751120218364 313.694612301976 120.41200950164512 313.606441973364 113 314 C105.76911558971496 340.7714887095077 111.68928650017737 366.87490742137004 125.03125 390.75 C131.56324552795033 401.53297674455297 139.2628880474503 410.94469277148494 148 420 C148.6535546875 420.7051171875 149.307109375 421.410234375 149.98046875 422.13671875 C163.52159747521208 436.3707836999564 180.60939662530635 446.79184557441124 198.2265625 455.15380859375 C199.73262031257386 455.8724204299809 201.2270633069278 456.6152946754566 202.71875 457.36328125 C224.59137327284978 467.9881156562735 250.2264561123219 473.98502568135996 274.53125 474.23828125 C275.3166213989258 474.2480751037598 276.10199279785155 474.2578689575195 276.9111633300781 474.26795959472656 C327.262404446231 474.766207383946 375.66637864869375 461.56062783599157 415 429 C415.2886694335938 428.76208740234375 415.2886694335938 428.76208740234375 416.74951171875 427.55810546875 C428.3184114191414 417.9688771340936 438.6834217644795 407.82981325781725 448 396 C448.791484375 395.0370703125 449.58296875 394.074140625 450.3984375 393.08203125 C482.8568690888313 352.68817868913584 495.8156934020906 298.4199935116963 490.281494140625 247.365966796875 C483.20305788418665 193.53669462672812 453.83251076409624 143.72115113438952 411.8125 109.5625 C410.2190053587971 108.36071725220316 408.61424418748425 107.17376430667228 407 106 C406.017734375 105.2510546875 405.03546875 104.502109375 404.0234375 103.73046875 C337.163322531887 53.50012735181368 227.39144051297433 37.98155704667029 155 86 Z M 234.25 130.25 C 238.11474353699157 132.70938225081284 240.5344110923763 134.60323327712894 242.0 139.0 C 242.43667448167196 144.2400937800634 242.29362374272665 147.98034072236203 239.39453125 152.45703125 C 235.86720687415487 156.35981312243368 231.5294300167764 157.78534315554015 226.4375 158.5 C 221.52950361587483 157.78610961685453 217.9130767008565 156.27318525631182 214.671875 152.421875 C 212.03904870730344 148.3057662888828 211.29695361921642 144.9213246654851 212.0 140.0 C 213.73976094250358 135.11013936278582 216.42143892919628 131.96769522146994 221.07421875 129.65625 C 225.69968860502033 128.08002497841093 229.67655961409628 128.4909844669601 234.25 130.25 Z Z" fill="#ffffff" fill-rule="evenodd"/>
</svg>